<?xml version="1.0" standalone="no"?>
<!DOCTYPE svg PUBLIC "-//W3C//DTD SVG 20010904//EN"
 "http://www.w3.org/TR/2001/REC-SVG-20010904/DTD/svg10.dtd">
<svg version="1.0" xmlns="http://www.w3.org/2000/svg"
 width="32.000000pt" height="32.000000pt" viewBox="0 0 32.000000 32.000000"
 preserveAspectRatio="xMidYMid meet">

<g transform="translate(0.000000,32.000000) scale(0.100000,-0.100000)"
fill="#000000" stroke="none">
<path d="M4 227 c-2 -7 -4 -54 -2 -103 3 -84 4 -89 26 -92 12 -2 22 -7 22 -12
0 -17 41 -22 58 -7 25 23 87 25 110 4 24 -22 37 -21 72 5 25 18 30 29 30 64 0
58 -38 104 -85 104 -27 0 -34 4 -37 23 -3 21 -8 22 -96 25 -71 2 -94 0 -98
-11z m184 -94 l-3 -88 -32 -3 c-18 -2 -33 1 -33 7 0 6 -9 15 -21 22 -17 9 -25
7 -44 -11 -13 -12 -28 -19 -34 -15 -7 3 -11 41 -11 91 l0 84 90 0 91 0 -3 -87z
m51 28 c-33 -27 -16 -55 35 -59 30 -3 36 -7 36 -27 0 -32 -13 -38 -33 -14 -20
23 -31 24 -51 4 -8 -8 -17 -15 -20 -15 -3 0 -6 29 -6 65 l0 65 31 0 31 0 -23
-19z m59 -28 c2 -9 -7 -13 -27 -13 -21 0 -31 5 -31 16 0 19 51 16 58 -3z
m-192 -84 c8 -14 -21 -43 -35 -35 -19 12 -13 46 8 46 11 0 23 -5 27 -11z m164
-8 c0 -26 -17 -36 -35 -21 -18 15 -8 40 16 40 12 0 19 -7 19 -19z"/>
</g>
</svg>
